<?xml version="1.0" encoding="UTF-8"?>
<svg width="305px" height="300px" viewBox="0 0 305 300" version="1.1" xmlns="http://www.w3.org/2000/svg" xmlns:xlink="http://www.w3.org/1999/xlink">
    <title>mask-20</title>
    <g id="Page-1" stroke="none" stroke-width="1" fill="none" fill-rule="evenodd">
        <path d="M275.48485,223.261434 L277.223438,222.417166 C290.734214,215.885502 300.524184,203.538911 303.80784,188.890327 C307.091496,174.241744 303.509354,158.894845 294.08063,147.216236 L292.494549,145.242886 C283.095966,133.60497 279.503721,118.319599 282.734052,103.710977 L284.248963,96.8652821 C287.443113,82.3061041 283.867945,67.0831521 274.527258,55.4705649 C265.18657,43.8579778 251.087518,37.1078767 236.188683,37.1154834 L228.603963,37.1154834 C213.739963,37.1131005 199.675199,30.3822094 190.344849,18.8060456 L189.927994,18.2872782 C180.55559,6.67740039 166.422784,-0.0491710542 151.50623,0 C136.589677,0.0497123712 122.50173,6.86982301 113.206422,18.5415759 C103.883927,30.2724676 89.72378,37.1105451 74.7439644,37.1154834 L69.09101,37.1154834 C54.196646,37.1235805 40.108784,43.8858861 30.7821946,55.5040729 C21.4556053,67.1222598 17.8957289,82.3438454 21.1019005,96.8957978 L22.4948047,103.232898 C25.6971023,117.728446 22.1891142,132.89568 12.9478187,144.510508 L10.6805367,147.358643 C1.38873899,159.052311 -2.08830681,174.336696 1.22990763,188.901683 C4.54812207,203.466671 14.3020265,215.733961 27.7410718,222.244243 L29.8660133,223.261434 C43.4224431,229.816154 53.2306311,242.222645 56.4837016,256.930456 L57.50042,261.42644 C60.7457876,276.11435 70.5300735,288.509326 84.0592886,295.071874 C97.5885037,301.634422 113.375362,301.643112 126.911787,295.095462 L131.273509,292.979705 C144.794915,286.449306 160.555948,286.449306 174.077354,292.979705 L178.439076,295.095462 C191.975501,301.643112 207.762359,301.634422 221.291574,295.071874 C234.82079,288.509326 244.605075,276.11435 247.850443,261.42644 L248.867161,256.930456 C252.116033,242.22065 261.925512,229.812526 275.48485,223.261434 L275.48485,223.261434 Z" id="mask-20" fill="#3438AA" fill-rule="nonzero"></path>
    </g>
</svg>