<?xml version="1.0" encoding="UTF-8"?>
<svg width="264px" height="312px" viewBox="0 0 264 312" version="1.1" xmlns="http://www.w3.org/2000/svg" xmlns:xlink="http://www.w3.org/1999/xlink">
    <title>mask-10</title>
    <g id="Page-1" stroke="none" stroke-width="1" fill="none" fill-rule="evenodd">
        <path d="M181.531317,290.355697 L146.845578,269.544253 C130.201426,259.54483 105.412914,255.816217 91.6812983,269.544253 L52.3057885,302.876403 C41.7704321,313.3245 25.2607684,314.717325 13.1238863,306.181954 C0.987004094,297.646582 -3.28538107,281.638594 2.98435942,268.190663 L35.7666129,196.112006 C41.1587208,184.763214 41.1587208,171.590667 35.7666129,160.241875 L5.1416432,93.5775766 C-1.33890165,79.5133605 1.63249515,62.9005512 12.5863872,51.9546897 C31.7058434,32.7506341 52.0096907,43.4947533 76.2051088,51.5316928 C93.8090288,57.4175248 113.193454,51.1390295 124.003749,36.0500093 L138.385641,15.8307613 C147.559086,3.1038896 163.871575,-2.28799458 178.822702,2.46480906 C193.773829,7.21761271 203.978607,21.0390529 204.119347,36.7268042 L204.119347,59.7378311 C204.119347,64.410125 207.906989,68.1977675 212.579283,68.1977675 L222.054412,68.1977675 C238.308047,68.2395377 253.031166,77.795242 259.688211,92.6231264 C266.345257,107.451011 263.702549,124.803181 252.93318,136.97705 L221.03922,173.185578 C209.997865,185.572623 207.218984,203.271453 213.932873,218.446238 L227.553371,249.071207 C233.409992,262.008422 230.134676,277.253031 219.481042,286.643004 C208.827407,296.032978 193.292152,297.367759 181.192919,289.9327 L181.531317,290.355697 Z" id="mask-10" fill="#3438AA" fill-rule="nonzero"></path>
    </g>
</svg>