<?xml version="1.0" encoding="UTF-8"?>
<svg width="235px" height="324px" viewBox="0 0 235 324" version="1.1" xmlns="http://www.w3.org/2000/svg" xmlns:xlink="http://www.w3.org/1999/xlink">
    <title>mask-26</title>
    <g id="Page-1" stroke="none" stroke-width="1" fill="none" fill-rule="evenodd">
        <path d="M142.858047,11.4414469 L142.858047,11.447775 C158.119601,26.7023681 158.119601,51.4421969 142.858047,66.7037509 L123.535099,86.0260666 C120.021088,89.5400779 118.261234,94.1488558 118.261234,98.7513056 C118.261234,103.353755 120.021088,107.956205 123.535099,111.470216 C130.55616,118.497606 141.951859,118.497606 148.979249,111.470216 L168.302197,92.1472679 C171.705466,88.7376708 175.583978,86.0912464 179.723841,84.2067289 L179.725265,84.2070453 L180.1914,83.9984861 C185.190497,81.7982015 190.563316,80.7009442 195.930185,80.7009442 C205.930531,80.7009442 215.930877,84.5149089 223.564501,92.1485335 C226.18461,94.7740659 228.361148,97.6779064 230.077174,100.763883 L230.331805,101.228136 C238.324234,116.032799 236.068888,134.899489 223.565134,147.403244 L153.686745,217.282265 C150.257531,220.711479 148.54324,225.209515 148.54324,229.701223 C148.54324,234.199258 150.257531,238.690966 153.686745,242.126508 C160.551502,248.984937 171.673193,248.984937 178.530988,242.126508 L192.840159,227.823666 C193.237565,227.426259 193.655222,227.047837 194.085535,226.708649 C196.843334,224.498866 200.187119,223.390177 203.544825,223.390177 C207.417009,223.390177 211.289825,224.870327 214.242531,227.823033 C220.155537,233.729711 220.155537,243.3124 214.242531,249.225406 L143.907884,319.567646 C140.948217,322.527313 137.076034,324.000502 133.203218,324.000502 C129.331034,324.000502 125.458218,322.527313 122.498551,319.567646 C121.872699,318.941794 121.312026,318.270379 120.822862,317.566058 C116.650725,311.660014 117.211397,303.445466 122.498551,298.158313 L125.914476,294.742388 C129.34369,291.313173 131.064309,286.815138 131.064309,282.317102 C131.064309,277.819066 129.343058,273.327359 125.914476,269.898145 C119.056048,263.033388 107.93499,263.033388 101.070233,269.898145 L94.7338753,276.234502 C87.1002507,283.861799 77.099905,287.675764 67.1058874,287.675764 C57.1055417,287.675764 47.105196,283.861799 39.4778995,276.234502 C24.2163455,260.973581 24.2163455,236.23312 39.4778995,220.972198 L95.1186257,165.331472 C98.632637,161.817461 100.386162,157.215011 100.386162,152.612561 C100.386162,148.003783 98.632637,143.401334 95.1186257,139.887322 C88.091236,132.859933 76.7018655,132.859933 69.6744759,139.887322 L66.7470824,142.814716 C59.1197859,150.442012 49.1194402,154.255977 39.1190945,154.255977 C29.1187488,154.255977 19.1184031,150.442012 11.4911066,142.814716 C-3.77044742,127.553162 -3.77044742,102.813333 11.4911066,87.55874 L87.6020715,11.4414469 C102.856665,-3.81314612 127.597126,-3.81314612 142.858047,11.4414469 Z" id="mask-26" fill="#3438AA" fill-rule="nonzero"></path>
    </g>
</svg>