<?xml version="1.0" encoding="UTF-8"?>
<svg width="216px" height="325px" viewBox="0 0 216 325" version="1.1" xmlns="http://www.w3.org/2000/svg" xmlns:xlink="http://www.w3.org/1999/xlink">
    <title>mask-27</title>
    <g id="Page-1" stroke="none" stroke-width="1" fill="none" fill-rule="evenodd">
        <path d="M169.719387,314.190039 C147.679491,337.553636 100.099648,316.424194 86.0970853,290.826442 C79.2476139,278.304805 81.3009719,265.965313 84.4835974,252.956262 L84.9238614,251.178071 L84.9238614,251.178071 L86.2848453,245.788895 L86.2848453,245.788895 L86.7373031,243.972702 C90.1814507,230.00816 92.9288801,215.100239 86.0970853,198.275737 C80.3889693,184.217664 70.1465114,175.694121 58.4724563,167.437701 L56.9077044,166.337966 L56.9077044,166.337966 L55.3276199,165.238622 L55.3276199,165.238622 L50.5117136,161.915191 L50.5117136,161.915191 L48.0713186,160.222022 L48.0713186,160.222022 L46.4361185,159.075234 C46.1631473,158.882709 45.8899798,158.68945 45.6166502,158.495397 L43.974999,157.321103 L43.974999,157.321103 L42.33109,156.125004 C32.7382136,149.078764 23.1135176,140.777915 14.9168667,128.744103 C-5.03536714,99.4521321 -2.7347485,41.578031 14.9168667,20.1325193 C30.6268043,1.04601385 60.5133188,-1.05350175 84.0784816,0.849615051 L85.6573351,0.983831542 L85.6573351,0.983831542 L87.2156397,1.12929161 C87.4735672,1.1544228 87.7305803,1.17998564 87.98665,1.20596171 L89.5115145,1.3666295 L89.5115145,1.3666295 L91.0123409,1.53633066 L91.0123409,1.53633066 L92.4877336,1.71418112 L92.4877336,1.71418112 C173.500767,11.7773211 229.52277,117.170891 212.861642,212.215798 C212.580278,213.26394 212.298788,214.304716 212.017173,215.338125 L211.171954,218.416254 C210.749156,219.94427 210.326078,221.455711 209.902718,222.950578 L209.055624,225.918213 C208.773134,226.900058 208.490519,227.874538 208.207779,228.84165 L207.359185,231.72089 C205.944236,236.482792 204.526161,241.060537 203.104962,245.454125 L202.251867,248.06818 L202.251867,248.06818 L201.398022,250.638036 C191.005015,281.635754 180.44547,302.819755 169.719387,314.190039 Z" id="mask-27" fill="#3438AA" fill-rule="nonzero"></path>
    </g>
</svg>