<?xml version="1.0" encoding="UTF-8"?>
<svg width="299px" height="301px" viewBox="0 0 299 301" version="1.1" xmlns="http://www.w3.org/2000/svg" xmlns:xlink="http://www.w3.org/1999/xlink">
    <title>mask-25</title>
    <g id="Page-1" stroke="none" stroke-width="1" fill="none" fill-rule="evenodd">
        <path d="M165.363478,231 C182.3591,236.736331 200.10985,239.650609 218.220559,239.650609 C221.300416,239.650609 224.406357,239.562337 227.486215,239.390405 C235.157096,246.865608 242.026865,255.105387 248,263.98647 C221.779044,287.041984 187.513551,301 150.020874,301 C149.346195,301 148.672561,300.99548 148,300.986469 C148.283359,276.56346 154.259531,252.51824 165.363478,231 Z M106.418149,197 C120.298404,209.457424 135.927699,219.391187 153,226.605101 C141.441228,249.25604 135.182714,274.430354 134.792474,300 C87.7099831,295.292453 47.0432163,268.864624 23,230.906481 C46.758735,211.659778 75.9779406,199.748624 106.418149,197 Z M278,229 C272.214501,238.395599 265.418966,247.111836 257.763233,255 C253.553398,249.017129 248.957053,243.314452 244,237.921602 C255.037072,236.232869 265.795275,233.469309 276.217204,229.659246 L278,229 Z M261.710938,153 C273.990219,169.207936 282.98359,187.83409 288,207.411689 C287.677131,208.197299 287.344324,208.977502 287.00505,209.754282 C268.814664,218.810832 249.286178,224.139011 228.847429,225.592656 C225.105857,225.863132 221.300511,226 217.5379,226 C201.618303,226 186.001792,223.624368 171,218.945449 C174.370111,213.708632 178.061716,208.656259 182.041287,203.866543 C202.562407,179.162581 230.724461,161.217274 261.710938,153 Z M55.7475762,115 C62.6716951,141.07528 75.7186974,164.868417 94,184.810804 C65.4953572,189.268525 38.3776561,201.102665 15.6833606,219 C8.56836585,205.203834 3.53700078,190.16335 1,174.292865 C13.6350766,150.206824 32.7030086,129.557452 55.7475762,115 Z M138.578201,91 C182.563872,91 223.717248,109.308876 253,141.551994 C221.785841,151.099203 193.550632,169.87001 172.655426,195.15612 C167.737867,201.105754 163.224266,207.427934 159.177477,214 C142.108421,206.98623 126.571396,197.055383 112.937625,184.409719 C90.5542528,163.650264 75.0892464,137.304585 68,107.973324 C89.7090167,96.8563351 114.0035,91 138.578201,91 Z M298.976655,148 C298.992197,148.909471 299,149.820894 299,150.734201 C299,163.23325 297.538483,175.379409 294.782483,187 C290.009883,174.012531 283.692092,161.614315 276,150.194023 C283.313251,148.914146 290.745285,148.178739 298.217937,148.014886 L298.976655,148 Z M50.7961378,71.6468614 C50.7961378,81.6449769 51.6772216,91.6246845 53.4093004,101.382182 C32.1747385,114.060465 13.8524517,131.497775 0.0112331506,152 L0,150.576646 C0,103.577586 21.4277321,61.6086162 55,34 C52.2089242,46.2640441 50.7961378,58.8490114 50.7961378,71.6468614 Z M149.942385,0 C227.382493,0 291.1054,58.8606638 299,134.377424 C288.346026,134.587774 277.764933,135.807237 267.443565,138 C235.483661,99.6326589 188.862295,77.708745 138.868944,77.708745 C113.492658,77.708745 88.3892993,83.5060568 65.7134818,94.532625 C64.5805418,86.9307869 64,79.2036617 64,71.4601377 C64,54.3886123 66.7349385,37.7333933 72.1279329,21.8098125 C94.808293,7.969893 121.446666,0 149.942385,0 Z" id="mask-25" fill="#3438AA" fill-rule="nonzero"></path>
    </g>
</svg>