<?xml version="1.0" encoding="UTF-8"?>
<svg width="305px" height="301px" viewBox="0 0 305 301" version="1.1" xmlns="http://www.w3.org/2000/svg" xmlns:xlink="http://www.w3.org/1999/xlink">
    <title>mask-07</title>
    <g id="Page-1" stroke="none" stroke-width="1" fill="none" fill-rule="evenodd">
        <path d="M300.096461,115.364808 L260.037427,45.8988556 C255.847429,38.5328155 249.231675,32.8463944 241.316825,29.8078722 L165.911585,2.33546152 C157.462246,-0.778487173 148.178344,-0.778487173 139.729005,2.33546152 L64.8478223,29.6772556 C56.691808,32.6575216 49.837344,38.3966799 45.4730694,45.8988556 L4.89059289,115.757271 C0.582774017,123.281523 -0.945826667,132.078214 0.570501029,140.613058 L14.4469552,219.105659 C16.0884674,227.705505 20.7264296,235.446225 27.5379381,240.952971 L89.0667236,292.496242 C95.7242061,298.017706 104.110339,301.027407 112.761568,301 L192.879636,301 C201.354134,300.766174 209.489898,297.625243 215.92033,292.103779 L277.449116,240.560508 C284.243442,235.039044 288.877722,227.305683 290.540098,218.713196 L304.416553,140.220595 C305.956199,131.685751 304.425757,122.881701 300.096461,115.364808 Z" id="mask-07" fill="#3438AA" fill-rule="nonzero"></path>
    </g>
</svg>