<?xml version="1.0" encoding="UTF-8"?>
<svg width="301px" height="272px" viewBox="0 0 301 272" version="1.1" xmlns="http://www.w3.org/2000/svg" xmlns:xlink="http://www.w3.org/1999/xlink">
    <title>mask-15</title>
    <g id="Page-1" stroke="none" stroke-width="1" fill="none" fill-rule="evenodd">
        <path d="M280.301032,206.004604 C281.857446,206.062715 282.431275,207.028604 281.657784,208.380848 C279.142369,212.77682 276.579789,217.141382 273.68706,221.304913 C271.044302,225.108787 268.258478,228.796441 265.348457,232.405568 C261.226319,237.519282 256.703287,242.251352 251.953867,246.761975 C248.212186,250.317703 244.228396,253.606436 240.12198,256.755391 C234.624224,260.972321 228.837195,264.718085 222.833212,268.163874 C219.751827,269.932315 216.495936,271.158915 213.021518,271.71489 C209.416612,272.292853 205.841577,272.044706 202.458343,270.483578 C200.955382,269.787824 199.758987,268.683727 198.655349,267.472832 C196.116719,263.101821 196.810399,258.977369 198.641707,254.974747 L198.932139,254.359903 L198.932139,254.359903 L199.238827,253.746881 C199.291202,253.644857 199.344184,253.542904 199.397738,253.441022 L199.725631,252.830542 C199.781329,252.728929 199.837527,252.627382 199.894191,252.525897 C201.466326,249.709899 203.554121,247.266122 205.745677,244.888307 C209.531378,240.782887 213.859465,237.330816 218.363632,234.090769 C224.163238,229.916244 230.285131,226.250578 236.600397,222.906875 C242.794609,219.627564 249.097298,216.585407 255.5572,213.854219 C260.11482,211.927152 264.75419,210.227816 269.401421,208.545756 C269.983504,208.385167 270.561754,208.211523 271.138875,208.034051 L272.86955,207.499376 C274.024676,207.147573 275.186091,206.817364 276.375411,206.582567 L276.807951,206.493668 L276.807951,206.493668 L277.670559,206.307779 C278.533254,206.125362 279.399675,205.971099 280.301032,206.004604 Z M9.88968932,85.2783992 L9.9717827,85.3794072 C12.5717045,88.6817773 15.2060831,91.9576286 17.8905806,95.1929217 C20.006541,97.7434059 22.2211732,100.212774 24.3715905,102.735179 L25.9659251,104.617777 L25.9659251,104.617777 L29.1418894,108.393379 C29.6724112,109.021582 30.2043991,109.648511 30.739156,110.273057 L32.3530371,112.138432 C33.9902569,114.008267 35.5710929,115.921781 37.1363827,117.848004 L39.4777625,120.743002 L39.4777625,120.743002 C43.0910273,125.215319 46.4787567,129.854548 49.7396225,134.584253 C52.5807418,138.705586 55.4312585,142.822239 58.1627425,147.013769 L61.112062,151.538501 C64.549586,156.819811 67.961002,162.118736 71.195242,167.529957 C73.5508338,171.471899 75.8296809,175.451278 77.9722671,179.511773 C81.6904685,186.557974 84.9466356,193.800725 87.6295669,201.305544 C89.6719151,207.018005 91.2099411,212.84902 92.4864087,218.775191 C93.9132333,225.365892 94.1246727,232.00963 93.9461239,238.698606 C93.9461239,241.49088 94.0009415,244.283153 93.9320279,247.073866 C93.8458859,250.614905 93.7221547,254.157504 93.501318,257.692304 C93.3024083,260.888599 92.9828998,264.078654 92.6524278,267.264029 C92.5208655,268.530692 92.2201517,269.778635 91.9914839,271.035938 C91.8552229,271.783144 91.3148777,272.038973 90.6476689,271.995295 C88.420507,271.848661 86.2700897,271.294886 84.230874,270.440045 C80.9104919,269.047028 77.6997452,267.412223 74.615862,265.554347 C71.5680019,263.71831 68.535804,261.852635 65.6116751,259.818487 C62.0798536,257.360039 58.6561012,254.770557 55.284034,252.096838 C49.9181713,247.842911 45.0300051,243.086687 40.3172553,238.157311 C36.9263935,234.610032 33.8346793,230.789765 30.8181435,226.907102 C27.2471666,222.31155 24.0614793,217.46953 20.9807286,212.549514 C20.410312,211.639763 19.8838749,210.701933 19.3679251,209.757927 L18.3400852,207.868166 L18.3400852,207.868166 C14.587427,201.029437 11.4127032,193.936439 8.7501327,186.603212 C6.44465989,180.2543 4.63567817,173.777474 3.23391311,167.178973 C2.53851234,163.901562 1.9496144,160.608552 1.51733825,157.282783 C1.06000261,153.763583 0.616762929,150.249062 0.416287033,146.700223 L0.330408171,145.190361 C0.290676354,144.435081 0.2615447,143.679576 0.269062546,142.925195 C0.277415709,142.115591 0.234779776,141.307721 0.181122309,140.500429 L0.0709542386,138.886273 C0.00350159317,137.810225 -0.036175928,136.733836 0.0466595987,135.654365 C0.114529043,134.776645 0.143243038,133.897191 0.158499161,133.017564 L0.189591488,130.379724 C0.203629441,129.501311 0.229907098,128.624284 0.294122033,127.750204 C0.612064276,123.42608 1.06156882,119.111316 1.68962222,114.810591 C2.36466215,110.193201 3.25270773,105.624168 4.34749407,101.103493 C5.51646219,96.2790578 6.9701972,91.5268174 8.68045777,86.858492 L9.20120347,85.4605236 C9.38768129,84.9676834 9.49844838,84.8148591 9.88968932,85.2783992 Z M233.70967,21.8340488 L234.768714,22.267835 C235.645365,22.6335869 236.507202,23.0097289 237.353455,23.3942489 L238.361427,23.8595654 C238.694892,24.0159256 239.025813,24.1734974 239.354143,24.332152 L240.331305,24.8112359 L240.331305,24.8112359 L241.292618,25.2960444 C241.610382,25.4585155 241.925455,25.6218119 242.237787,25.7858048 L243.166516,26.2797443 C243.319917,26.3623729 243.472622,26.4451434 243.624622,26.5280397 L244.528136,27.0267991 L244.528136,27.0267991 L245.414469,27.5278058 C245.560743,27.6114512 245.706289,27.6951581 245.851101,27.7789104 L246.711109,28.2818392 L246.711109,28.2818392 L247.553199,28.7850835 L247.553199,28.7850835 L248.377073,29.2878706 L248.377073,29.2878706 L249.182436,29.7894278 L249.182436,29.7894278 L249.968992,30.2889823 L249.968992,30.2889823 L250.736445,30.7857615 L250.736445,30.7857615 L251.484501,31.2789925 L251.484501,31.2789925 L252.569564,32.010496 L252.569564,32.010496 L253.609318,32.7296696 L253.609318,32.7296696 L254.276821,33.2009809 L254.276821,33.2009809 L254.923447,33.6648805 L254.923447,33.6648805 L255.853594,34.3451425 L255.853594,34.3451425 L256.735103,35.0043816 L256.735103,35.0043816 L257.833063,35.8461569 L257.833063,35.8461569 L258.840415,36.63974 L258.840415,36.63974 L259.535043,37.1995823 L259.535043,37.1995823 L260.176374,37.7262311 L260.176374,37.7262311 L261.12411,38.5231328 L261.12411,38.5231328 L262.188763,39.4487335 L262.188763,39.4487335 L263.016179,40.1964101 L263.016179,40.1964101 L263.631282,40.7820279 L263.631282,40.7820279 L264.620422,41.7837744 L264.620422,41.7837744 L265.312823,42.5067535 L265.312823,42.5067535 L266.135927,43.3858776 L266.135927,43.3858776 L267.275013,44.6357446 L267.275013,44.6357446 L268.114114,45.5807615 L268.114114,45.5807615 L268.779816,46.3453109 L268.779816,46.3453109 L269.709748,47.4358277 L269.709748,47.4358277 L270.434735,48.3048274 L270.434735,48.3048274 L271.179718,49.2157296 L271.179718,49.2157296 L271.941451,50.1668172 L271.941451,50.1668172 L272.716688,51.1563728 L272.716688,51.1563728 L273.23941,51.8365999 L273.23941,51.8365999 L273.765729,52.5326518 L273.765729,52.5326518 L274.294683,53.24402 L274.294683,53.24402 L275.090948,54.3386771 L275.090948,54.3386771 L275.887729,55.4649338 C275.976169,55.5917653 276.064558,55.7191502 276.152877,55.847078 L276.68178,56.6210727 L276.68178,56.6210727 L277.208027,57.4075853 L277.208027,57.4075853 L277.664667,58.1044182 L278.051896,58.706826 L278.633652,59.6309687 L278.633652,59.6309687 L279.026157,60.2668054 L279.026157,60.2668054 L279.602487,61.2175154 L279.602487,61.2175154 L280.16115,62.157633 L280.16115,62.157633 L280.873195,63.3811545 L280.873195,63.3811545 L281.540978,64.5534656 L281.540978,64.5534656 L282.302273,65.9186521 L282.302273,65.9186521 L283.089189,67.3622108 L283.089189,67.3622108 L284.153544,69.3728647 L284.153544,69.3728647 L284.486756,70.016803 L284.486756,70.016803 C287.669713,76.1881857 290.373818,82.5487596 292.692964,89.0875796 C294.317305,93.6672554 295.686571,98.3204185 296.824236,103.037688 C297.739688,106.830891 298.487699,110.66162 299.088611,114.522057 C299.633188,118.029129 300.087002,121.539328 300.370244,125.079234 L300.490275,126.837216 L300.490275,126.837216 L300.685151,130.35318 L300.685151,130.35318 L300.813104,132.105886 C301.007931,134.357416 301.017907,136.605429 300.986292,138.850583 L300.946119,141.094809 L300.946119,141.094809 C300.872569,144.841105 300.701998,148.599911 300.307649,152.324317 C299.633188,158.692709 298.623843,165.009503 297.190417,171.266882 C295.556687,178.399856 293.404983,185.356147 290.763473,192.171718 C290.482999,192.894565 289.885846,193.314877 289.271171,193.684588 L288.72131,194.010468 L288.72131,194.010468 C286.223768,195.519306 283.471152,196.241672 280.579262,196.56533 C278.875112,196.756084 277.175657,196.942148 275.462118,197 C271.244778,196.918695 267.043087,196.649762 262.847655,196.154112 C258.552072,195.647518 254.283091,194.973622 250.053232,194.123044 C242.131831,192.531337 234.28085,190.630045 226.47838,188.516108 C217.41462,186.05975 208.433798,183.340715 199.496793,180.474704 C192.359396,178.185648 185.253295,175.79496 178.198836,173.25417 L168.174242,169.632959 L168.174242,169.632959 L160.343604,166.813855 L157.244977,165.582724 C154.665373,164.550932 152.096262,163.494411 149.56787,162.337374 C145.192478,160.337577 140.842123,158.284619 136.573143,156.069051 C129.697079,152.501 123.005671,148.606165 116.641321,144.1891 C113.189205,141.793721 109.85289,139.234169 106.669933,136.468226 C104.164567,134.291747 101.723361,132.052724 99.4808945,129.622948 C96.2040449,126.072096 93.2166972,122.288274 90.8412159,118.049455 C88.7223743,114.267197 87.038568,110.330145 86.0480017,106.09289 C85.2467854,102.663996 84.8148797,99.1944502 85.076214,95.6983236 C85.4110973,91.2280972 86.536243,86.9376807 88.4062694,82.8270738 C88.558584,82.4924713 88.7258904,82.165513 88.8994134,81.8418576 L89.4298569,80.8764594 C89.872809,80.0729832 90.299769,79.263019 90.5736222,78.3787374 C91.0008333,77.7517486 91.4405633,77.1247599 91.8912475,76.4962076 C95.3887446,71.6303999 99.1334921,67.4072165 102.912667,63.7437887 C158.374991,23.7681761 212.050226,13.126567 233.70967,21.8340488 Z M102.795955,0.702992894 L103.871933,0.951850746 L103.871933,0.951850746 L106.013787,1.49459122 L106.013787,1.49459122 C106.33857,1.69787582 106.67451,1.88298598 107.014202,2.06197616 L108.037133,2.59264129 C108.943252,3.06945391 109.823416,3.58846752 110.537246,4.37827084 C112.474528,6.52218297 113.230005,9.04461732 112.94004,11.8827486 C112.380485,17.3563998 109.869542,21.9096608 106.353908,26.0262862 C100.648644,32.7046117 93.7270933,37.8657072 86.351002,42.5022117 C81.6817764,45.4361515 76.8307346,48.0276936 71.8997565,50.4794496 L70.3467729,51.2398679 L70.3467729,51.2398679 L67.2289634,52.7380178 L67.2289634,52.7380178 L63.6699654,54.2137135 L63.6699654,54.2137135 L61.8967359,54.9667441 C58.186747,56.5719295 54.3968216,57.9635091 50.5943572,59.328388 C44.9988098,61.3387965 39.2966806,62.9895303 33.5177498,64.3606917 C29.3358923,65.3530691 25.114889,66.1184902 20.791361,65.9848034 L19.8803119,65.943296 L19.8803119,65.943296 L19.6234649,65.9258901 L19.6234649,65.9258901 L19.4142336,65.9045341 C19.0108261,65.8511551 18.9265591,65.7423849 19.0564312,65.3989824 L19.131195,65.223176 L19.131195,65.223176 L19.234075,65.0101329 L19.234075,65.0101329 L19.2953417,64.8884239 C23.0570542,57.4719015 27.4927402,50.4810202 32.4958179,43.8419604 C37.0866745,37.7479098 42.1069934,32.0465171 47.600661,26.7534886 C51.2793024,23.2085731 55.1225186,19.8678397 59.1303099,16.6935932 C64.5048566,12.4371816 70.1756382,8.63311184 76.07369,5.17772232 C79.5799195,3.12333619 83.440377,1.87468407 87.4246575,1.02026048 C90.1283883,0.440697417 92.8728711,0.148559939 95.609517,0.0229094113 C98.0029065,-0.0854641691 100.427644,0.198820151 102.795955,0.702992894 Z" id="mask-15" fill="#3438AA" fill-rule="nonzero"></path>
    </g>
</svg>