<?xml version="1.0" encoding="UTF-8"?>
<svg width="347px" height="302px" viewBox="0 0 347 302" version="1.1" xmlns="http://www.w3.org/2000/svg" xmlns:xlink="http://www.w3.org/1999/xlink">
    <title>mask-30</title>
    <g id="Page-1" stroke="none" stroke-width="1" fill="none" fill-rule="evenodd">
        <path d="M313.294279,5.36151833 C310.793948,7.4901448 295.192281,17.9226796 292.734077,20.0760863 C267.644038,41.7340553 61.4600816,171.283647 28.1111465,195.114847 C19.5946003,201.200784 7.32048749,210.026847 8.28196254,220.989645 C9.191399,231.362672 17.894235,239.178374 28.1111465,239.178374 C28.6934832,239.178374 29.285732,239.148638 29.8804588,239.101555 C60.7361767,227.448832 71.2056705,214.584058 89.1178859,208.155705 C52.4504984,233.850383 9.67957061,264.95649 9.06501955,265.392623 C0.476172821,271.451402 -1.92503678,283.145219 3.57618645,292.098336 C9.07740969,301.061365 20.5928081,304.203505 29.8804588,299.284618 L231.169937,165.79156 C212.906867,188.398614 195.245958,211.793681 184.236078,230.138526 C179.986259,237.230644 180.553727,246.215975 185.668378,252.715844 C190.778073,259.215712 199.374354,261.877115 207.27183,259.411477 C214.956197,257.007789 223.525219,253.228795 232.267704,248.765866 L225.713318,260.680227 C222.073095,267.296563 222.486925,275.399716 226.783827,281.61709 C230.53804,287.043972 236.690985,290.213371 243.171029,290.213371 C244.105246,290.213371 245.049375,290.148942 245.993504,290.01265 C247.752904,289.759891 289.334222,283.785365 312.1866,277.555601 C322.804952,274.661264 329.06693,263.703422 326.167637,253.08507 C323.275778,242.466718 312.320414,236.20474 301.699584,239.101555 C295.804354,240.707318 288.243889,242.335382 280.460402,243.837067 L304.479932,200.179162 C308.992422,191.966975 307.180983,181.725284 300.126036,175.562427 C293.365974,169.657285 283.538113,169.027866 276.099072,173.897192 C303.607666,140.909676 329.171008,112.846004 329.634399,112.342964 C336.166482,105.18394 336.607571,94.3673454 330.675171,86.7028033 C324.737815,79.0407392 314.156633,76.760953 305.595045,81.2883111 L272.602573,98.7559339 C279.843373,92.1941144 286.013664,85.9395705 292.734077,79.1448164 C302.594152,69.1608397 313.765105,57.8486396 332.015784,41.8802241 C334.454164,39.7763779 336.877676,37.6774878 339.281364,35.5959439 C347.572847,28.4146173 348.49963,15.8733152 341.345562,7.54961748 C334.181581,-0.779036252 321.647713,-1.75290145 313.294279,5.36151833 Z" id="mask-30" fill="#3438AA" fill-rule="nonzero"></path>
    </g>
</svg>