<?xml version="1.0" encoding="UTF-8"?>
<svg width="310px" height="310px" viewBox="0 0 310 310" version="1.1" xmlns="http://www.w3.org/2000/svg" xmlns:xlink="http://www.w3.org/1999/xlink">
    <title>mask-09</title>
    <g id="Page-1" stroke="none" stroke-width="1" fill="none" fill-rule="evenodd">
        <path d="M8,180 C3.5998875,180 0,183.600056 0,187.999625 C0,192.399944 3.5998875,196 8,196 C12.4001125,196 16,192.399944 16,187.999625 C15.99925,183.600056 12.3993625,180 8,180 Z M8,115 C3.5998875,115 0,118.599888 0,123 C0,127.400112 3.5998875,131 8,131 C12.4001125,131 16,127.400112 16,123 C15.99925,118.599888 12.3993625,115 8,115 Z M122,294 C117.599888,294 114,297.599888 114,302 C114,306.400112 117.599888,310 122,310 C126.400112,310 130,306.400112 130,302 C130,297.599888 126.400112,294 122,294 Z M57.5,41 C48.425116,41 41,48.424942 41,57.4996133 C41,66.5742846 48.4243426,74 57.5,74 C66.5756574,74 74,66.575058 74,57.5003867 C74,48.4257154 66.574884,41 57.5,41 Z M57.5,106 C48.425116,106 41,113.425116 41,122.5 C41,131.574884 48.425116,139 57.5,139 C66.574884,139 74,131.574884 74,122.5 C74,113.425116 66.574884,106 57.5,106 Z M57.5,171 C48.425116,171 41,178.425116 41,187.5 C41,196.574884 48.425116,204 57.5,204 C66.574884,204 74,196.575657 74,187.5 C74,178.425116 66.574884,171 57.5,171 Z M302,131 C306.400112,131 310,127.400112 310,123 C310,118.599888 306.400112,115 302,115 C297.599888,115 294,118.599888 294,123 C294,127.400112 297.599888,131 302,131 Z M188,16 C192.400112,16 196,12.3999437 196,7.99962499 C196,3.60005625 192.400112,0 188,0 C183.599888,0 180,3.60005625 180,8.00037501 C180.00075,12.3999437 183.600637,16 188,16 Z M122.5,74 C131.574884,74 139,66.574884 139,57.5 C139,48.425116 131.574884,41 122.5,41 C113.425116,41 106,48.425116 106,57.5 C106,66.574884 113.425116,74 122.5,74 Z M122,16 C126.400112,16 130,12.3999437 130,7.99962499 C130,3.60005625 126.400112,0 122,0 C117.599888,0 114,3.60005625 114,8.00037501 C114,12.3999437 117.599888,16 122,16 Z M187.5,74 C196.574884,74 204,66.574884 204,57.5 C204,48.425116 196.574884,41 187.5,41 C178.425116,41 171,48.425116 171,57.5 C171,66.574884 178.425116,74 187.5,74 Z M57.5,237 C48.425116,237 41,244.425116 41,253.5 C41,262.574884 48.425116,270 57.5,270 C66.574884,270 74,262.575657 74,253.500773 C74,244.425116 66.574884,237 57.5,237 Z M187.5,98 C173.943078,98 163,108.943078 163,122.5 C163,136.056922 173.943078,147 187.5,147 C201.056922,147 212,136.056922 212,122.5 C212,108.943078 201.056922,98 187.5,98 Z M252.5,171 C243.425116,171 236,178.425116 236,187.5 C236,196.574884 243.425116,204 252.5,204 C261.574884,204 269,196.574884 269,187.5 C269,178.425116 261.574884,171 252.5,171 Z M252.5,237 C243.425116,237 236,244.425116 236,253.5 C236,262.574884 243.425116,270 252.5,270 C261.574884,270.000773 269,262.575657 269,253.500773 C269,244.425116 261.574884,237 252.5,237 Z M252.5,106 C243.425116,106 236,113.425116 236,122.5 C236,131.574884 243.425116,139 252.5,139 C261.574884,139 269,131.574884 269,122.5 C269,113.425116 261.574884,106 252.5,106 Z M302,180 C297.599888,180 294,183.600056 294,188.000375 C294,192.399944 297.599888,196 302,196 C306.400112,196 310,192.399944 310,187.999625 C309.99925,183.600056 306.399363,180 302,180 Z M252.5,41 C243.425116,41 236,48.424942 236,57.4996133 C236,66.5742846 243.424343,74 252.5,74 C261.574884,74 269,66.575058 269,57.5003867 C269,48.4257154 261.574884,41 252.5,41 Z M122.5,163 C108.943078,163 98,173.943078 98,187.5 C98,201.056922 108.943078,212 122.5,212 C136.056922,212 147,201.056922 147,187.5 C147,173.943078 136.056922,163 122.5,163 Z M122.5,237 C113.425116,237 106,244.425116 106,253.5 C106,262.574884 113.425116,270 122.5,270 C131.574884,270 139,262.574884 139,253.5 C139,244.425116 131.574884,237 122.5,237 Z M122.5,98 C108.943078,98 98,108.943078 98,122.5 C98,136.056922 108.943078,147 122.5,147 C136.056922,147 147,136.056922 147,122.5 C147,108.943078 136.056922,98 122.5,98 Z M187.5,237 C178.425116,237 171,244.424942 171,253.499613 C171,262.575058 178.425116,270 187.5,270 C196.574884,270 204,262.575058 204,253.500387 C204.000773,244.424942 196.575657,237 187.5,237 Z M188,294 C183.599888,294 180,297.599888 180,302 C180,306.400112 183.599888,310 188,310 C192.400112,310 196,306.400112 196,302 C196,297.599888 192.400112,294 188,294 Z M187.5,163 C173.943078,163 163,173.943078 163,187.5 C163,201.056922 173.943078,212 187.5,212 C201.056922,212 212,201.056922 212,187.5 C212,173.943078 201.056922,163 187.5,163 Z" id="mask-09" fill="#3438AA" fill-rule="nonzero"></path>
    </g>
</svg>