<?xml version="1.0" encoding="UTF-8"?>
<svg width="300px" height="300px" viewBox="0 0 300 300" version="1.1" xmlns="http://www.w3.org/2000/svg" xmlns:xlink="http://www.w3.org/1999/xlink">
    <title>mask-17</title>
    <g id="Page-1" stroke="none" stroke-width="1" fill="none" fill-rule="evenodd">
        <path d="M291,200 C270.439489,258.215382 215.030337,300 149.700851,300 C116.921758,300 86.677112,289.36943 62,271.538231 C75.2804253,251.323785 98.0302245,237.862068 123.919579,237.594856 L124.705059,237.590804 L174.696644,237.590804 C218.093418,237.590804 258.194663,223.563993 291,200 Z M297.575881,124 C299.074564,132.503096 300,141.200548 300,150.13347 C300,152.301292 299.885843,154.439914 299.743512,156.570324 L299.475461,160.400725 L299.475461,160.400725 C268.073043,192.163655 224.618639,212.028364 176.568506,212.422482 L175.111042,212.428457 L125.152462,212.428457 C91.360919,212.428457 61.4771904,229.303832 43.3918396,255 C37.3783762,248.903934 31.9044384,242.288339 27,235.242917 C49.6374864,206.499389 84.5766644,187.884735 123.957745,187.515316 L125.152462,187.509715 L175.111042,187.509715 C225.751523,187.509715 270.434741,162.370453 297.575881,124 Z M271.836489,62 C278.173065,70.8334753 283.674501,80.3132108 288,90.4392065 C268.168204,132.360829 225.950059,161.55922 176.763735,162.138996 L175.271124,162.147788 L125.335014,162.15906 C81.1550015,162.15906 41.5476597,181.475477 14.1303611,212 C10.3029497,203.598617 7.25824765,194.768899 5,185.619809 C36.0657354,155.943615 77.8603279,137.484487 123.937434,137.118272 L125.335014,137.11272 L175.271124,137.09769 C221.683169,137.09769 260.680072,105.115325 271.836489,62 Z M225.046134,20 C234.006721,25.1735669 242.344681,31.2687106 250,38.1243423 C249.517276,78.6168504 216.761819,111.497931 176.266604,112.151504 L175.037133,112.161419 L125.02438,112.172658 C77.8734641,112.172658 34.5520832,128.637413 0.330067664,156 C0.232547672,153.879624 0,151.781726 0,149.635127 C0,140.782745 0.915187613,132.17387 2.39299056,123.744814 C37.3644847,100.939499 78.9456581,87.4676366 123.668194,87.2004799 L125.02438,87.19643 L175.037133,87.1851913 C202.344456,87.1851913 224.597102,65.2211025 225.039424,38.0501809 L225.046134,37.2252431 L225.046134,20 Z M150.032647,0 C167.208675,0 183.620784,3.0236218 198.977767,8.32265185 L200,8.67928329 L200,37.3239058 C200,50.9225202 189.013856,62.0101605 175.430597,62.2305534 L175.018197,62.233897 L125.047096,62.2413663 C84.7299291,62.2413663 46.7400497,72.0148966 13,89 C36.2841196,36.603122 88.8410958,0 150.032647,0 Z" id="mask-17" fill="#3438AA" fill-rule="nonzero"></path>
    </g>
</svg>