<?xml version="1.0" encoding="UTF-8"?>
<svg width="301px" height="284px" viewBox="0 0 301 284" version="1.1" xmlns="http://www.w3.org/2000/svg" xmlns:xlink="http://www.w3.org/1999/xlink">
    <title>mask-21</title>
    <g id="Page-1" stroke="none" stroke-width="1" fill="none" fill-rule="evenodd">
        <path d="M229.55848,1.08269205e-06 L71.6637427,1.08269205e-06 C32.505848,1.08269205e-06 0.611111111,31.8711122 0.611111111,71.0000011 L0.611111111,276.111112 C0.611111111,279.266668 2.50584795,282.106668 5.50584795,283.36889 C6.45321637,283.842223 7.55847953,284.000001 8.50584795,284.000001 C10.5584795,284.000001 12.611269,283.21269 14.0323216,281.634912 L52.2425322,243.607312 C56.6635848,239.189534 62.6635848,236.666668 68.9793743,236.666668 L229.55848,236.666668 C268.716374,236.666668 300.611111,204.795557 300.611111,165.666668 L300.611111,71.0000011 C300.611111,31.8711122 268.716374,1.08269205e-06 229.55848,1.08269205e-06 Z" id="mask-21" fill="#3438AA" fill-rule="nonzero"></path>
    </g>
</svg>