<?xml version="1.0" encoding="UTF-8"?>
<svg width="240px" height="300px" viewBox="0 0 240 300" version="1.1" xmlns="http://www.w3.org/2000/svg" xmlns:xlink="http://www.w3.org/1999/xlink">
    <title>mask-22</title>
    <g id="Page-1" stroke="none" stroke-width="1" fill="none" fill-rule="evenodd">
        <path d="M200.122653,31.2231509 C168.099216,2.01540804 122.795761,-7.57057263 81.7014789,6.16583246 C40.6071962,19.9022376 10.1510937,54.8120322 2.09060885,97.4184514 C-5.96987595,140.024871 9.62628211,183.66234 42.8582582,211.484815 C70.7693739,234.710175 94.0900216,262.959673 111.615344,294.773803 C113.360964,298.001822 116.737012,300.009306 120.404293,299.999968 C124.068695,299.999968 127.436386,297.983283 129.173313,294.753856 L129.990426,293.217931 C147.641618,261.788928 170.914051,233.874703 198.647864,210.866456 C224.64802,188.377409 239.71361,155.771687 239.99596,121.378784 C240.27831,86.9858806 225.750075,54.1367804 200.122653,31.2231509 L200.122653,31.2231509 Z M120.404293,170.343985 C92.8872715,170.343985 70.580318,148.017467 70.580318,120.476312 C70.580318,92.9351568 92.8872715,70.6086391 120.404293,70.6086391 C147.921315,70.6086391 170.228268,92.9351568 170.228268,120.476312 C170.195324,148.003798 147.907657,170.311011 120.404293,170.343985 Z" id="mask-22" fill="#3438AA" fill-rule="nonzero"></path>
    </g>
</svg>